<svg xmlns="http://www.w3.org/2000/svg" viewBox="0 0 512 512"><path d="M483.382 265.344h-.376v-151.37c0-6.298-5.107-11.405-11.405-11.405h-60.055l-44.878-88.732a11.406 11.406 0 00-15.326-5.03l-185.378 93.761H46.19c-24.94 0-45.184 19.484-46.146 44.383v.112c-.001.027-.006.055-.007.083A45.63 45.63 0 000 148.759v309.47c0 25.469 20.721 46.19 46.19 46.19H471.6c6.298 0 11.405-5.107 11.405-11.405V405.16h.376c15.78 0 28.618-12.839 28.618-28.618v-82.579c.001-15.78-12.838-28.619-28.617-28.619zm-23.187-139.965v44.231h-14.742l-22.371-44.231h37.113zm-286.363-1.226a.027.027 0 00.01-.006L351.458 34.31l42.892 84.804.003.008 25.537 50.489h-22.106a11.43 11.43 0 00-.501-1.166l-29.355-58.04a11.406 11.406 0 00-12.324-6.054l-3.493.669c-13.373 2.571-27.127-3.507-34.234-15.108l-2.272-3.708a11.405 11.405 0 00-14.872-4.219l-173.245 87.624H83.955l89.877-45.456zm198.479 45.458H178.028l123.933-62.684c11.671 14.96 30.449 23.057 49.381 21.225l20.969 41.459zM46.19 125.379h74.675l-83.783 42.376c-6.443-2.745-11.37-8.318-13.331-15.031-.018-.066-.039-.131-.057-.196a22.967 22.967 0 01-.334-1.339 24.056 24.056 0 01-.218-1.18 24.111 24.111 0 01-.138-.939 23.941 23.941 0 01-.141-1.663 23.275 23.275 0 0123.327-22.028zm414.005 356.23H46.19c-12.892 0-23.38-10.488-23.38-23.38v-5.308h348.495c6.298 0 11.405-5.107 11.405-11.405 0-6.298-5.107-11.405-11.405-11.405H22.81V186.134c4.544 2.655 9.593 4.532 14.964 5.51l.089.017c.013.002.025.002.038.005l.318.057.013.002c.087.015.174.025.261.04a44.99 44.99 0 002.028.299c.135.017.268.034.404.049l.005.001c.316.036.636.057.953.087.468.043.932.095 1.404.123l.351.022c.89.05 1.727.075 2.552.075h414.005v25.163H108.669c-6.298 0-11.405 5.107-11.405 11.405 0 6.298 5.107 11.405 11.405 11.405h351.527v24.951h-164.98c-6.298 0-11.405 5.107-11.405 11.405v117.006c0 6.298 5.107 11.405 11.405 11.405h164.979v76.448zm23.187-99.259H306.621v-94.196h176.76a5.814 5.814 0 015.808 5.809v82.579a5.812 5.812 0 01-5.807 5.808z"/><path d="M363.277 292.194c-23.743 0-43.059 19.317-43.059 43.058 0 23.743 19.317 43.059 43.059 43.059 23.742 0 43.058-19.317 43.058-43.059s-19.315-43.058-43.058-43.058zm0 63.308c-11.165 0-20.25-9.084-20.25-20.25 0-11.164 9.084-20.248 20.25-20.248 11.164 0 20.248 9.084 20.248 20.248.001 11.166-9.083 20.25-20.248 20.25zm53.884 83.788a11.451 11.451 0 00-.649-2.133 11.283 11.283 0 00-1.05-1.973 10.833 10.833 0 00-1.413-1.734c-2.657-2.646-6.592-3.866-10.299-3.114-.73.137-1.448.365-2.133.65a12.19 12.19 0 00-1.972 1.049c-.616.411-1.199.89-1.735 1.414a10.85 10.85 0 00-1.414 1.734 11.346 11.346 0 00-1.049 1.973 11.474 11.474 0 00-.649 2.133c-.149.73-.217 1.483-.217 2.224 0 .74.068 1.494.217 2.235.148.719.364 1.436.649 2.133.285.684.64 1.346 1.049 1.962.411.627.89 1.209 1.414 1.734a12.858 12.858 0 001.735 1.426 11.523 11.523 0 004.105 1.699c.741.148 1.483.217 2.235.217.741 0 1.483-.07 2.224-.217a11.523 11.523 0 004.105-1.699c.616-.422 1.21-.901 1.735-1.426a10.79 10.79 0 001.413-1.734c.411-.616.765-1.277 1.05-1.962.285-.696.501-1.414.649-2.133.148-.741.228-1.495.228-2.235 0-.74-.08-1.494-.228-2.223zM85.176 226.758a11.415 11.415 0 00-.65-2.132 12.08 12.08 0 00-1.049-1.973 12.257 12.257 0 00-1.426-1.734 10.795 10.795 0 00-1.734-1.414 11.513 11.513 0 00-1.962-1.049 12.057 12.057 0 00-2.133-.65 11.269 11.269 0 00-4.459 0c-.731.148-1.45.365-2.133.65-.696.285-1.357.639-1.973 1.049-.627.409-1.209.89-1.734 1.414a11.359 11.359 0 00-1.414 1.734 11.567 11.567 0 00-1.926 6.329 11.53 11.53 0 001.926 6.341c.411.616.89 1.198 1.414 1.722a10.976 10.976 0 001.734 1.426c.616.411 1.277.764 1.973 1.049a11.477 11.477 0 004.357.877 11.46 11.46 0 004.368-.877 11.622 11.622 0 001.962-1.049c.627-.422 1.209-.89 1.734-1.426a12.155 12.155 0 001.426-1.722c.411-.628.764-1.289 1.049-1.973.285-.684.502-1.402.65-2.133.148-.74.217-1.483.217-2.235-.001-.74-.07-1.483-.217-2.224z"/></svg>