<svg xmlns="http://www.w3.org/2000/svg" viewBox="0 0 512.002 512.002"><path d="M502.001 492.002h-44v-79c0-5.523-4.478-10-10-10s-10 4.477-10 10v79h-120v-190c0-5.523-4.478-10-10-10h-104c-5.522 0-10 4.477-10 10v190h-120V266.001h3.848c2.652 0 5.195-1.054 7.071-2.929L256.001 91.991l171.081 171.081a10.003 10.003 0 007.071 2.929h3.848v75c0 5.523 4.478 10 10 10s10-4.477 10-10v-75h44a10.001 10.001 0 007.071-17.071l-246-246c-3.906-3.905-10.236-3.905-14.143 0l-94 94c-3.905 3.905-3.905 10.237 0 14.142 3.906 3.906 10.238 3.906 14.143 0l86.929-86.929 221.857 221.858h-39.563L263.072 70.778c-3.906-3.905-10.236-3.905-14.143 0L73.706 246.001H34.143l78.929-78.928c3.905-3.905 3.905-10.237 0-14.143-3.905-3.904-10.237-3.905-14.143 0l-96 96a10.002 10.002 0 007.072 17.071h44v226h-44c-5.522 0-10 4.477-10 10s4.478 10 10 10h492c5.522 0 10-4.477 10-10s-4.478-9.999-10-9.999zm-204 0h-84v-180h84v180z"/><path d="M406.001 292.002h-56c-5.522 0-10 4.477-10 10v100c0 5.523 4.478 10 10 10h56c5.522 0 10-4.477 10-10v-100c0-5.523-4.478-10-10-10zm-10 100h-36v-80h36v80zm-234-100h-56c-5.522 0-10 4.477-10 10v100c0 5.523 4.478 10 10 10h56c5.522 0 10-4.477 10-10v-100c0-5.523-4.478-10-10-10zm-10 100h-36v-80h36v80zm104-227.68c-25.364 0-46 20.636-46 46s20.636 46 46 46 46-20.636 46-46-20.636-46-46-46zm0 72c-14.337 0-26-11.664-26-26s11.663-26 26-26 26 11.664 26 26-11.663 26-26 26zm-11.931 158.61a10.073 10.073 0 00-7.069-2.93c-2.63 0-5.21 1.07-7.07 2.93-1.86 1.86-2.93 4.44-2.93 7.07s1.069 5.21 2.93 7.07c1.861 1.86 4.44 2.93 7.07 2.93s5.21-1.07 7.069-2.93c1.86-1.86 2.931-4.44 2.931-7.07s-1.07-5.21-2.931-7.07zm-104-269c-1.859-1.86-4.439-2.93-7.069-2.93s-5.21 1.07-7.07 2.93c-1.86 1.86-2.93 4.44-2.93 7.07s1.069 5.21 2.93 7.07c1.861 1.86 4.44 2.93 7.07 2.93s5.21-1.07 7.069-2.93c1.86-1.86 2.931-4.44 2.931-7.07s-1.07-5.21-2.931-7.07zm315 241.329a10.078 10.078 0 00-7.069-2.93c-2.63 0-5.21 1.07-7.07 2.93-1.86 1.87-2.93 4.44-2.93 7.07s1.069 5.21 2.93 7.08c1.86 1.86 4.44 2.92 7.07 2.92s5.21-1.06 7.069-2.92a10.1 10.1 0 002.931-7.08c0-2.63-1.07-5.21-2.931-7.07z"/></svg>