<svg height="496pt" viewBox="0 0 496 496" width="496pt" xmlns="http://www.w3.org/2000/svg"><path d="M496 288V120h-58.383L216 265.191v-52.953L464.855 43.902 448.56 85.055l14.875 5.89L493.12 16H408v16h45.895L216 192.93V80h-8C93.313 80 0 173.313 0 288s93.313 208 208 208c25.71 0 50.688-4.64 74.398-13.734C286.266 490.359 294.457 496 304 496h144c13.23 0 24-10.77 24-24v-64c0-13.23-10.77-24-24-24h-55.45c15.372-29.52 23.45-62.426 23.45-96zm-16-16h-32V136h32zm-176 0v-45.336l32-20.969V272zm-69.191 0L288 237.152V272zM200 96.168V272H16.71C24.657 176.223 103.169 100.152 200 96.168zM456 408v64c0 4.406-3.594 8-8 8H304c-4.406 0-8-3.594-8-8v-64c0-4.406 3.594-8 8-8h24v-25.047L365.574 400H448c4.406 0 8 3.594 8 8zm-81.8-24h-3.774L312 345.047V384h-8c-13.23 0-24 10.77-24 24v57.977C257.145 475.247 232.953 480 208 480c-105.863 0-192-86.137-192-192h368v-16h-32v-76.785l32-20.969V256h16v-92.23l32-20.97V272h-32.527l.336 8.32c.093 2.543.191 5.106.191 7.68 0 33.848-8.969 66.91-25.8 96zM24 120c13.23 0 24-10.77 24-24 0-4.191-1.176-8.07-3.07-11.504l34.039-38.289C81.762 47.344 84.8 48 88 48c7.664 0 14.426-3.68 18.824-9.29l29.223 9.747C136.289 61.473 146.922 72 160 72c13.23 0 24-10.77 24-24 0-3.695-.902-7.152-2.406-10.281L203.313 16H328V0H196.687l-26.406 26.406C167.152 24.902 163.695 24 160 24c-7.664 0-14.434 3.68-18.824 9.297l-29.223-9.746C111.711 10.527 101.078 0 88 0 74.77 0 64 10.77 64 24c0 4.191 1.176 8.07 3.07 11.504L33.031 73.793C30.238 72.656 27.2 72 24 72 10.77 72 0 82.77 0 96s10.77 24 24 24zm136-80c4.406 0 8 3.594 8 8s-3.594 8-8 8-8-3.594-8-8 3.594-8 8-8zM88 16c4.406 0 8 3.594 8 8s-3.594 8-8 8-8-3.594-8-8 3.594-8 8-8zM24 88c4.406 0 8 3.594 8 8s-3.594 8-8 8-8-3.594-8-8 3.594-8 8-8zm0 0"/><path d="M224 32h72v16h-72zm88 0h16v16h-16zm0 416h96v16h-96zm112 0h16v16h-16zm-112-32h128v16H312zm0 0"/></svg>