<svg xmlns="http://www.w3.org/2000/svg" viewBox="0 0 512 512"><path d="M488 8H24C10.745 8 0 18.745 0 32v352a8 8 0 008 8h182.24l-12.8 64H160a8 8 0 00-8 8v24h-16v16h240v-16h-16v-24a8 8 0 00-8-8h-17.453l-12.8-64H504a8 8 0 008-8V32c0-13.255-10.745-24-24-24zM24 24h464a8 8 0 018 8v256h-24V56a8 8 0 00-8-8H48a8 8 0 00-8 8v232H16V32a8 8 0 018-8zm432 264H56V64h400v224zM344 488H168v-16h176v16zm-25.76-32H193.76l12.788-64h98.892l12.8 64zM16 376v-72h480v72H16z"/><path d="M256 312c-13.255 0-24 10.745-24 24s10.745 24 24 24 24-10.745 24-24-10.745-24-24-24zm0 32a8 8 0 110-16 8 8 0 010 16zm-24-128h48v16h-48zm64 0h48v16h-48zm64 0h48v16h-48zm-192 0h48v16h-48zm-64 0h48v16h-48zm0-40c0 13.255 10.745 24 24 24s24-10.745 24-24-10.745-24-24-24-24 10.745-24 24zm24-8a8 8 0 110 16 8 8 0 010-16zm64 32c13.255 0 24-10.745 24-24s-10.745-24-24-24-24 10.745-24 24 10.745 24 24 24zm0-32a8 8 0 110 16 8 8 0 010-16zm64 32c13.255 0 24-10.745 24-24s-10.745-24-24-24-24 10.745-24 24 10.745 24 24 24zm0-32a8 8 0 110 16 8 8 0 010-16zM88 96h24V80H80a8 8 0 00-8 8v32h16V96z"/></svg>