<svg xmlns="http://www.w3.org/2000/svg" viewBox="0 0 595.3 841.9"><path d="M197.7 459.1c25 25.8 60.1 42 98.9 42 75.8 0 137.6-61.8 137.6-137.6s-61.8-137.6-137.6-137.6S159 287.7 159 363.5c0 36.2 14.1 69.1 37 93.7.4.8 1.1 1.3 1.7 1.9zm98.9 26.1c-29.9 0-57.4-10.9-78.6-28.9 35.7-11.8 48.9-26.2 53.8-35.8 6.8 3 14.4 4.6 22.8 4.6h1.8c9.1-.2 17.4-2 24.5-5.4 4.6 9.6 17.5 24.5 54.2 36.6-21.1 18.1-48.6 28.9-78.5 28.9zM252.1 338v-.5c1.9-41.7 32.6-45 42.1-45h2.6c9.4 0 40.2 3.3 42.1 45v.5c.1.4 4 39-14 59.2-7.1 8-16.6 12-29 12.1h-.5c-12.5-.2-21.9-4.1-29-12.1-18.2-20-14.4-58.8-14.3-59.2zm44.5-96.3c67.1 0 121.8 54.6 121.8 121.8 0 30.7-11.5 58.9-30.3 80.3-51.7-15-53.7-33.3-53.7-33.5v.4h-.6c1-1 1.9-1.9 2.9-3 22-24.7 18.3-67 17.9-71.2-2.2-44.2-32.5-59.8-57.8-59.8h-2.6c-25.4 0-55.8 15.7-57.8 59.8-.4 4.1-4 46.4 17.9 71.2 1.3 1.4 2.6 2.8 4 4.1-1.7 4.6-10.2 19.4-53.1 31.9-18.9-21.4-30.3-49.5-30.3-80.2-.1-67.1 54.6-121.8 121.7-121.8zm0 0" fill="#ffb600"/></svg>