<?xml version="1.0" encoding="iso-8859-1"?>
<!-- Generator: Adobe Illustrator 19.0.0, SVG Export Plug-In . SVG Version: 6.00 Build 0)  -->
<svg version="1.1" id="Capa_1" xmlns="http://www.w3.org/2000/svg" xmlns:xlink="http://www.w3.org/1999/xlink" x="0px" y="0px"
	 viewBox="0 0 512 512" style="enable-background:new 0 0 512 512;" xml:space="preserve">
<g>
	<g>
		<g>
			<path d="M488,8H24C10.745,8,0,18.745,0,32v352c0,4.418,3.582,8,8,8h182.24l-12.8,64H160c-4.418,0-8,3.582-8,8v24h-16v16h240v-16
				h-16v-24c0-4.418-3.582-8-8-8h-17.453l-12.8-64H504c4.418,0,8-3.582,8-8V32C512,18.745,501.255,8,488,8z M24,24h464
				c4.418,0,8,3.582,8,8v256h-24V56c0-4.418-3.582-8-8-8H48c-4.418,0-8,3.582-8,8v232H16V32C16,27.582,19.582,24,24,24z M456,288H56
				V64h400V288z M344,488H168v-16h16h144h16V488z M318.24,456H193.76l12.788-64h98.892L318.24,456z M16,376v-72h480v72H16z"/>
			<path d="M256,312c-13.255,0-24,10.745-24,24s10.745,24,24,24s24-10.745,24-24S269.255,312,256,312z M256,344
				c-4.418,0-8-3.582-8-8s3.582-8,8-8s8,3.582,8,8S260.418,344,256,344z"/>
			<rect x="232" y="216" width="48" height="16"/>
			<rect x="296" y="216" width="48" height="16"/>
			<rect x="360" y="216" width="48" height="16"/>
			<rect x="168" y="216" width="48" height="16"/>
			<rect x="104" y="216" width="48" height="16"/>
			<path d="M104,176c0,13.255,10.745,24,24,24s24-10.745,24-24s-10.745-24-24-24S104,162.745,104,176z M128,168c4.418,0,8,3.582,8,8
				s-3.582,8-8,8s-8-3.582-8-8S123.582,168,128,168z"/>
			<path d="M192,200c13.255,0,24-10.745,24-24s-10.745-24-24-24s-24,10.745-24,24S178.745,200,192,200z M192,168
				c4.418,0,8,3.582,8,8s-3.582,8-8,8s-8-3.582-8-8S187.582,168,192,168z"/>
			<path d="M256,200c13.255,0,24-10.745,24-24s-10.745-24-24-24s-24,10.745-24,24S242.745,200,256,200z M256,168
				c4.418,0,8,3.582,8,8s-3.582,8-8,8s-8-3.582-8-8S251.582,168,256,168z"/>
			<path d="M88,96h24V80H80c-4.418,0-8,3.582-8,8v32h16V96z"/>
		</g>
	</g>
</g>
<g>
</g>
<g>
</g>
<g>
</g>
<g>
</g>
<g>
</g>
<g>
</g>
<g>
</g>
<g>
</g>
<g>
</g>
<g>
</g>
<g>
</g>
<g>
</g>
<g>
</g>
<g>
</g>
<g>
</g>
</svg>
