<?xml version="1.0" encoding="utf-8"?>
<!-- Generator: Adobe Illustrator 21.1.0, SVG Export Plug-In . SVG Version: 6.00 Build 0)  -->
<svg version="1.1" id="Слой_1" xmlns="http://www.w3.org/2000/svg" xmlns:xlink="http://www.w3.org/1999/xlink" x="0px" y="0px"
	 viewBox="0 0 595.3 841.9" style="enable-background:new 0 0 595.3 841.9;" xml:space="preserve">
<style type="text/css">
	.st0{fill:#FFB600;}
</style>
<path fill="#FFB600" class="st0" d="M197.7,459.1c25,25.8,60.1,42,98.9,42c75.8,0,137.6-61.8,137.6-137.6c0-75.8-61.8-137.6-137.6-137.6
	c-75.8,0-137.6,61.8-137.6,137.6c0,36.2,14.1,69.1,37,93.7C196.4,458,197.1,458.5,197.7,459.1L197.7,459.1z M296.6,485.2
	c-29.9,0-57.4-10.9-78.6-28.9c35.7-11.8,48.9-26.2,53.8-35.8c6.8,3,14.4,4.6,22.8,4.6h1.8c9.1-0.2,17.4-2,24.5-5.4
	c4.6,9.6,17.5,24.5,54.2,36.6C354,474.4,326.5,485.2,296.6,485.2L296.6,485.2z M252.1,338v-0.5c1.9-41.7,32.6-45,42.1-45h2.6
	c9.4,0,40.2,3.3,42.1,45v0.5c0.1,0.4,4,39-14,59.2c-7.1,8-16.6,12-29,12.1h-0.5c-12.5-0.2-21.9-4.1-29-12.1
	C248.2,377.2,252,338.4,252.1,338L252.1,338z M296.6,241.7c67.1,0,121.8,54.6,121.8,121.8c0,30.7-11.5,58.9-30.3,80.3
	c-51.7-15-53.7-33.3-53.7-33.5v0.4h-0.6c1-1,1.9-1.9,2.9-3c22-24.7,18.3-67,17.9-71.2c-2.2-44.2-32.5-59.8-57.8-59.8h-2.6
	c-25.4,0-55.8,15.7-57.8,59.8c-0.4,4.1-4,46.4,17.9,71.2c1.3,1.4,2.6,2.8,4,4.1c-1.7,4.6-10.2,19.4-53.1,31.9
	c-18.9-21.4-30.3-49.5-30.3-80.2C174.8,296.4,229.5,241.7,296.6,241.7L296.6,241.7z M296.6,241.7"/>
</svg>
